<?xml version="1.0" encoding="utf-8"?><svg viewBox="0 0 1214 512" xmlns="http://www.w3.org/2000/svg" xmlns:xlink="http://www.w3.org/1999/xlink"><style>:root>svg{display:none}:root>svg:target{display:block}</style><svg viewBox="0 0 1206 285" id="group-cable" xmlns="http://www.w3.org/2000/svg"><rect y="210" rx="7" width="972" height="68"/><path d="m967.55 82.78.11-.86c.07-.58.92-1.68 2.56-3.31 1.64-1.62 3.51-2.87 5.6-3.73 2.1-.86 4.01-1.74 5.74-2.64 1.73-.9 3.25-1.64 4.54-2.25 1.3-.6 3.21-1.31 5.73-2.13 2.52-.81 6.24-1.84 11.15-3.08s8.13-2.28 9.66-3.13c1.53-.85 3.64-1.68 6.32-2.5 2.67-.82 4.84-1.47 6.47-1.96 1.64-.48 3.64-1.12 6-1.91 2.35-.78 5.14-1.47 8.41-2.04 3.26-.57 6.47-1.14 9.62-1.7 3.16-.55 5.04-1.16 5.64-1.82.58-.65 2.19-1.31 4.77-1.96 2.59-.65 5.1-1.56 7.52-2.74 2.42-1.17 5.13-2.02 8.13-2.55 3-.53 4.89-1.05 5.65-1.56.76-.51 1.73-1.22 2.9-2.14 1.18-.92 2.86-1.96 5.05-3.13 2.18-1.16 3.56-1.99 4.17-2.46.6-.48 1.76-1.15 3.46-2 1.71-.85 3.43-1.62 5.18-2.3 1.75-.69 3.63-1.5 5.66-2.42a76.99 76.99 0 0 1 6.09-2.48c2.07-.74 3.53-1.18 4.39-1.33.87-.16 1.46-.37 1.74-.65.3-.27 2.47-.84 6.5-1.7 4.06-.87 6.98-1.46 8.78-1.77 1.8-.32 4.07-.91 6.81-1.76 2.73-.86 4.54-1.64 5.45-2.34.91-.7 2.31-1.32 4.21-1.86s4.01-1.02 6.35-1.43c2.34-.41 4.41-1.15 6.25-2.22 1.83-1.07 3.02-1.92 3.59-2.55.56-.63 1.81-1.22 3.72-1.78 1.91-.55 3.25-.89 4.02-1.02.78-.13 1.18-.39 1.2-.77"/><path d="m964.89 84.94.78-.45c.52-.3 4.13-2.35 10.82-6.15 6.7-3.8 12.83-6.64 18.41-8.53 5.57-1.89 11.04-3.3 16.41-4.25 5.37-.95 10.67-1.88 15.9-2.8 5.23-.93 9.28-1.64 12.13-2.14 2.84-.51 5.05-1.17 6.59-1.99 1.56-.82 3.07-1.46 4.54-1.92 1.46-.45 3.51-1.29 6.14-2.5 2.62-1.21 5.56-2.1 8.81-2.67 3.25-.57 6.02-1.06 8.35-1.47 2.3-.41 5.1-.9 8.37-1.48 3.26-.57 6.43-1.13 9.52-1.68 3.09-.54 6.64-1.54 10.66-3 4.04-1.46 7.86-2.5 11.5-3.15 3.66-.64 7.69-1.35 12.1-2.13l10.88-1.92c2.84-.5 6.04-1.43 9.59-2.81 3.54-1.37 6.47-2.26 8.77-2.66 2.3-.41 4.63-.82 7-1.24 2.37-.42 4.07-.98 5.1-1.69 1.03-.71 2.36-1.32 3.98-1.82 1.62-.51 2.94-1.19 3.99-2.06 1.04-.87 2.45-1.87 4.21-3 1.77-1.13 3.6-1.86 5.49-2.18M968.42 87.68l1.62-.28c1.09-.2 4.31-.76 9.67-1.71 5.35-.94 10.85-2.13 16.49-3.57 5.65-1.44 10.46-2.95 14.44-4.54 3.99-1.59 6.73-2.86 8.23-3.8 1.51-.94 4.52-1.92 9.04-2.92 4.51-1.01 8.08-1.75 10.7-2.21 2.62-.46 4.83-.85 6.66-1.17 1.82-.32 4-.49 6.52-.49 2.52 0 5.12-.23 7.77-.7 2.66-.47 5.56-.76 8.69-.87 3.14-.11 6.18-.42 9.17-.95 2.97-.52 5.02-.98 6.19-1.37 1.16-.39 2.03-.87 2.62-1.43.58-.56 2.16-1.18 4.73-1.88 2.56-.7 5.15-1.28 7.78-1.74 2.63-.46 5.17-.91 7.6-1.34 2.44-.43 4.91-.87 7.4-1.31 2.49-.43 5.11-.9 7.86-1.38 2.75-.49 5.59-.99 8.56-1.51 2.96-.52 5.27-.93 6.98-1.23 1.68-.3 4.27-.53 7.73-.7 3.44-.16 6.44-.47 8.94-.91 2.51-.45 6.06-1.07 10.62-1.87 4.58-.81 8-1.42 10.31-1.82 2.3-.41 4.39-.77 6.27-1.11 1.88-.33 3.59-.85 5.11-1.56 1.53-.72 3.64-1.33 6.35-1.83 2.71-.51 5.12-.93 7.21-1.27"/><rect y="210.288" rx="7" width="972" height="75" transform="rotate(-10 0 210.288)"/></svg><svg viewBox="0 0 502.664 502.664" xml:space="preserve" id="icon" xmlns="http://www.w3.org/2000/svg"><path d="M153.821 358.226 0 274.337v-46.463l153.821-83.414v54.574L46.636 250.523l107.185 53.431v54.272zm26.273 29.358L282.103 115.08h32.227L212.084 387.584h-31.99zm168.749-29.358v-54.272l107.164-52.999-107.164-52.59v-53.927l153.821 83.522v46.183l-153.821 84.083z"/></svg><svg viewBox="0 0 512 512" xml:space="preserve" id="light" xmlns="http://www.w3.org/2000/svg"><path d="m256 131.38-20.016 296.944 85.796-20.016v-46.455c35.324-21.998 58.84-61.177 58.84-105.854 0-68.824-55.795-124.619-124.62-124.619z"/><path d="M131.38 256c0 44.677 23.516 83.856 58.84 105.854v46.455L256 428.325V131.38c-68.825 0-124.62 55.795-124.62 124.62z"/><path d="M288.527 233.022 256 265.549l-10.008 152.768L271 408.309V292.975l38.74-38.74z"/><path d="m223.473 233.022-21.213 21.213 38.74 38.74v115.334l15 10.008V265.549zM0 241h66.33v30H0zM445.67 241H512v30h-66.33zM86.5 342.413l-61.283 25.384-11.481-27.717 61.282-25.384zM425.478 169.56l61.283-25.384 11.48 27.718-61.282 25.384zM111.28 379.518l21.212 21.214-46.902 46.9-21.213-21.213zM400.72 132.49l-21.213-21.214 46.902-46.9 21.213 21.213zM340.107 13.745l27.717 11.481L342.44 86.51l-27.718-11.481zM241 0h30v66.33h-30zM171.891 13.744l25.384 61.283-27.717 11.481-25.384-61.283zM400.73 379.51l46.9 46.902-21.213 21.213-46.9-46.902zM85.583 64.368l46.9 46.902-21.213 21.213-46.901-46.902zM436.963 314.715l61.282 25.384-11.48 27.717-61.283-25.384zM75.028 197.26l-61.283-25.384 11.481-27.718 61.283 25.385z"/><path d="M321.78 408.309H256l-20.016 51.845L256 512h65.78z"/><path d="M190.22 408.31H256V512h-65.78z"/></svg><svg viewBox="0 0 1214 71" id="orange-cable" xmlns="http://www.w3.org/2000/svg"><path d="m975 41.49.25-.76c.16-.5 1.2-1.35 3.09-2.55 1.9-1.19 3.96-2.01 6.17-2.45 2.21-.44 4.25-.92 6.11-1.45 1.86-.53 3.48-.96 4.86-1.29 1.38-.34 3.38-.67 6.02-1 2.62-.34 6.46-.67 11.51-1 5.05-.34 8.41-.76 10.06-1.28 1.65-.51 3.86-.93 6.65-1.23 2.78-.31 5.02-.55 6.72-.73 1.71-.18 3.78-.43 6.23-.76 2.45-.34 5.33-.5 8.64-.5h9.78c3.2 0 5.16-.25 5.85-.74.71-.49 2.38-.83 5.05-1 2.67-.18 5.29-.6 7.88-1.26 2.59-.67 5.4-1 8.44-1 3.06 0 5-.17 5.85-.5.84-.34 1.91-.82 3.23-1.46s3.15-1.3 5.51-2c2.35-.7 3.86-1.21 4.53-1.54.68-.34 1.93-.75 3.75-1.24 1.84-.49 3.68-.9 5.51-1.24 1.85-.34 3.85-.76 5.99-1.27 2.13-.5 4.29-.92 6.44-1.25 2.15-.34 3.67-.5 4.55-.5.89 0 1.5-.1 1.83-.3.32-.2 2.56-.37 6.69-.5 4.13-.14 7.12-.2 8.95-.2 1.83 0 4.17-.17 7.01-.5 2.85-.34 4.77-.75 5.78-1.23 1-.48 2.5-.81 4.47-1 1.97-.18 4.13-.27 6.5-.27s4.54-.34 6.53-1c2-.67 3.33-1.24 3.99-1.72.67-.47 1.99-.8 3.97-1 1.97-.19 3.35-.28 4.14-.27.78 0 1.23-.17 1.33-.5"/><path d="m972 43 .84-.29c.57-.19 4.48-1.45 11.73-3.79 7.25-2.33 13.79-3.9 19.61-4.71 5.81-.81 11.44-1.21 16.89-1.21h28.47c2.89 0 5.18-.25 6.85-.74s3.26-.83 4.78-1c1.52-.18 3.69-.6 6.48-1.26 2.79-.67 5.85-1 9.15-1h26.64c3.13 0 6.82-.34 11.03-1 4.21-.67 8.18-1 11.88-1h23.32c2.89 0 6.19-.34 9.93-1 3.72-.67 6.77-1 9.09-1h7.12c2.4 0 4.18-.24 5.32-.71 1.14-.48 2.55-.81 4.23-1 1.68-.2 3.11-.6 4.29-1.21 1.17-.61 2.74-1.29 4.66-2.02 1.95-.73 3.87-1.09 5.8-1.08"/><rect y="3" rx="7" width="972" height="68"/><path d="M975 46h11.46c5.44 0 11.06-.2 16.87-.6 5.8-.4 10.8-.99 15-1.78 4.2-.79 7.11-1.49 8.77-2.09 1.65-.61 4.78-1 9.4-1.19 4.62-.19 8.26-.29 10.92-.29h6.76c1.86 0 4.03.2 6.5.6 2.5.39 5.09.59 7.79.59s5.59.2 8.71.6c3.11.39 6.17.59 9.19.59 3.02 0 5.13-.08 6.34-.25 1.21-.17 2.15-.46 2.83-.86.67-.41 2.33-.72 4.98-.94 2.64-.22 5.29-.33 7.97-.33h38.98c1.71 0 4.3.2 7.72.6 3.45.39 6.44.59 8.99.59h27.61c1.9 0 3.68-.2 5.31-.59 1.62-.4 3.81-.61 6.57-.64 2.75-.02 5.2-.02 7.33 0"/></svg><svg viewBox="0 0 1214 71" id="yellow-cable" xmlns="http://www.w3.org/2000/svg"><path d="m975 41.49.25-.76c.16-.5 1.2-1.35 3.09-2.55 1.9-1.19 3.96-2.01 6.17-2.45 2.21-.44 4.25-.92 6.11-1.45 1.86-.53 3.48-.96 4.86-1.29 1.38-.34 3.38-.67 6.02-1 2.62-.34 6.46-.67 11.51-1 5.05-.34 8.41-.76 10.06-1.28 1.65-.51 3.86-.93 6.65-1.23 2.78-.31 5.02-.55 6.72-.73 1.71-.18 3.78-.43 6.23-.76 2.45-.34 5.33-.5 8.64-.5h9.78c3.2 0 5.16-.25 5.85-.74.71-.49 2.38-.83 5.05-1 2.67-.18 5.29-.6 7.88-1.26 2.59-.67 5.4-1 8.44-1 3.06 0 5-.17 5.85-.5.84-.34 1.91-.82 3.23-1.46s3.15-1.3 5.51-2c2.35-.7 3.86-1.21 4.53-1.54.68-.34 1.93-.75 3.75-1.24 1.84-.49 3.68-.9 5.51-1.24 1.85-.34 3.85-.76 5.99-1.27 2.13-.5 4.29-.92 6.44-1.25 2.15-.34 3.67-.5 4.55-.5.89 0 1.5-.1 1.83-.3.32-.2 2.56-.37 6.69-.5 4.13-.14 7.12-.2 8.95-.2 1.83 0 4.17-.17 7.01-.5 2.85-.34 4.77-.75 5.78-1.23 1-.48 2.5-.81 4.47-1 1.97-.18 4.13-.27 6.5-.27s4.54-.34 6.53-1c2-.67 3.33-1.24 3.99-1.72.67-.47 1.99-.8 3.97-1 1.97-.19 3.35-.28 4.14-.27.78 0 1.23-.17 1.33-.5"/><path d="m972 43 .84-.29c.57-.19 4.48-1.45 11.73-3.79 7.25-2.33 13.79-3.9 19.61-4.71 5.81-.81 11.44-1.21 16.89-1.21h28.47c2.89 0 5.18-.25 6.85-.74s3.26-.83 4.78-1c1.52-.18 3.69-.6 6.48-1.26 2.79-.67 5.85-1 9.15-1h26.64c3.13 0 6.82-.34 11.03-1 4.21-.67 8.18-1 11.88-1h23.32c2.89 0 6.19-.34 9.93-1 3.72-.67 6.77-1 9.09-1h7.12c2.4 0 4.18-.24 5.32-.71 1.14-.48 2.55-.81 4.23-1 1.68-.2 3.11-.6 4.29-1.21 1.17-.61 2.74-1.29 4.66-2.02 1.95-.73 3.87-1.09 5.8-1.08"/><rect y="3" rx="7" width="972" height="68" fill-opacity=".707"/><path d="M975 46h11.46c5.44 0 11.06-.2 16.87-.6 5.8-.4 10.8-.99 15-1.78 4.2-.79 7.11-1.49 8.77-2.09 1.65-.61 4.78-1 9.4-1.19 4.62-.19 8.26-.29 10.92-.29h6.76c1.86 0 4.03.2 6.5.6 2.5.39 5.09.59 7.79.59s5.59.2 8.71.6c3.11.39 6.17.59 9.19.59 3.02 0 5.13-.08 6.34-.25 1.21-.17 2.15-.46 2.83-.86.67-.41 2.33-.72 4.98-.94 2.64-.22 5.29-.33 7.97-.33h38.98c1.71 0 4.3.2 7.72.6 3.45.39 6.44.59 8.99.59h27.61c1.9 0 3.68-.2 5.31-.59 1.62-.4 3.81-.61 6.57-.64 2.75-.02 5.2-.02 7.33 0"/></svg></svg>